<?xml version="1.0" standalone="no"?>
<!DOCTYPE svg PUBLIC "-//W3C//DTD SVG 20010904//EN"
 "http://www.w3.org/TR/2001/REC-SVG-20010904/DTD/svg10.dtd">
<svg version="1.0" xmlns="http://www.w3.org/2000/svg"
 width="512.000000pt" height="512.000000pt" viewBox="0 0 512.000000 512.000000"
 preserveAspectRatio="xMidYMid meet">
<metadata>
Created by potrace 1.14, written by Peter Selinger 2001-2017
</metadata>
<g transform="translate(0.000000,512.000000) scale(0.100000,-0.100000)"
fill="#000000" stroke="none">
<path d="M1410 5052 c-84 -12 -240 -66 -240 -84 0 -4 -6 -8 -14 -8 -25 0 -155
-112 -221 -191 -30 -36 -94 -134 -97 -150 -2 -8 -6 -16 -9 -19 -8 -7 -36 -97
-44 -142 -39 -212 46 -444 238 -643 37 -38 67 -73 67 -77 0 -5 6 -8 14 -8 8 0
18 -9 21 -20 4 -11 9 -19 13 -17 4 2 19 -10 34 -25 15 -15 24 -28 20 -28 -4 0
0 -4 8 -10 24 -15 337 -330 333 -334 -3 -2 5 -7 16 -11 12 -3 21 -13 21 -21 0
-8 4 -14 9 -14 13 0 76 -68 76 -83 0 -7 -10 -11 -22 -11 -13 1 -23 -3 -23 -9
0 -6 -2 -8 -6 -5 -3 3 -25 0 -50 -8 -24 -7 -44 -10 -44 -7 0 3 -6 1 -12 -5 -7
-5 -24 -12 -38 -14 -13 -1 -32 -10 -40 -18 -9 -8 -30 -26 -47 -40 -34 -28 -80
-106 -87 -147 -2 -15 -5 -85 -5 -154 l-1 -127 -117 -37 c-145 -46 -188 -67
-232 -114 -100 -107 -102 -284 -5 -387 35 -37 102 -81 138 -90 14 -3 26 -10
26 -14 0 -6 43 -28 70 -34 17 -4 106 -52 108 -59 2 -4 8 -5 13 -1 5 3 9 0 9
-5 0 -6 7 -11 15 -11 17 0 50 -17 78 -39 9 -8 17 -12 17 -8 0 3 89 -39 198
-92 108 -54 247 -122 307 -151 61 -30 113 -58 117 -64 4 -6 8 -7 8 -3 0 4 20
-3 44 -17 24 -13 47 -22 50 -19 3 4 6 1 6 -6 0 -7 5 -9 10 -6 6 3 10 3 10 -2
0 -4 21 -17 48 -27 26 -11 53 -24 61 -30 7 -5 20 -11 29 -12 8 -2 18 -8 22
-14 4 -7 10 -11 14 -11 6 1 337 -158 599 -289 86 -43 157 -76 157 -73 0 3 8
-1 18 -10 9 -8 29 -18 44 -22 15 -4 32 -13 39 -21 6 -8 15 -14 20 -14 13 0
343 -163 350 -173 3 -5 9 -8 13 -6 10 3 290 -134 294 -143 2 -5 9 -8 15 -8 6
0 112 -50 236 -112 124 -61 228 -112 231 -113 3 0 55 -25 117 -55 68 -34 117
-64 124 -77 7 -13 19 -23 26 -23 8 0 11 -4 8 -10 -3 -5 -2 -10 4 -10 6 0 25
-16 43 -36 77 -84 181 -113 260 -73 22 11 41 26 44 34 3 8 13 17 22 20 27 8
54 86 48 138 -9 71 -24 96 -114 187 -84 85 -84 85 -218 358 -74 150 -134 277
-134 282 0 6 -4 10 -10 10 -5 0 -10 6 -10 13 0 7 -38 88 -84 180 -46 93 -84
169 -84 170 -2 12 -237 483 -243 485 -4 2 -5 10 -2 18 3 8 0 14 -7 14 -6 0 -8
5 -5 10 3 6 2 10 -3 10 -6 0 -13 12 -17 28 -3 15 -13 34 -22 44 -8 9 -16 22
-17 30 -2 12 -51 113 -332 683 -65 132 -119 242 -119 245 -2 16 -31 70 -38 70
-5 0 -5 5 -2 10 3 6 2 10 -4 10 -5 0 -12 13 -16 30 -4 17 -11 30 -16 30 -6 0
-7 5 -4 10 3 6 1 10 -4 10 -6 0 -10 3 -9 8 2 4 -40 93 -91 197 -233 473 -275
560 -273 568 1 4 -3 7 -9 7 -5 0 -7 5 -4 10 3 6 2 10 -2 10 -5 0 -19 24 -32
54 -48 111 -152 181 -271 180 -64 -1 -143 -29 -162 -58 -5 -6 -8 -7 -8 -1 0
12 -45 -39 -69 -80 -10 -16 -33 -75 -51 -130 -17 -55 -37 -112 -43 -127 l-11
-26 -151 -4 c-145 -3 -152 -4 -204 -33 -58 -32 -131 -114 -131 -146 0 -10 -5
-19 -11 -19 -5 0 -8 -4 -5 -9 4 -5 2 -20 -3 -34 -5 -13 -12 -39 -16 -58 -3
-19 -8 -41 -10 -49 -2 -8 -4 -21 -4 -29 -1 -7 -28 13 -62 45 -34 33 -67 65
-75 72 -8 7 -14 18 -14 24 0 6 -2 9 -5 7 -6 -7 -281 264 -277 274 2 4 -1 7 -6
7 -11 0 -152 139 -152 151 0 5 -7 9 -15 9 -8 0 -15 3 -15 8 -1 4 -25 33 -54
65 -63 67 -98 150 -98 226 1 28 4 56 7 61 3 5 8 20 10 31 3 12 11 29 20 39 8
9 15 20 15 24 0 16 87 88 134 111 47 23 138 39 151 27 3 -3 17 -7 31 -8 23 -2
138 -65 154 -83 32 -37 143 -80 155 -61 3 4 13 6 24 3 10 -2 25 3 34 12 9 8
19 15 23 14 15 -3 100 89 90 98 -3 3 -1 12 5 19 29 35 3 139 -47 193 -13 14
-24 29 -24 34 0 4 -5 5 -10 2 -6 -3 -13 1 -16 9 -3 9 -10 16 -16 16 -5 0 -16
6 -23 13 -33 29 -45 37 -54 37 -5 0 -17 7 -25 16 -9 8 -25 16 -36 17 -11 1
-20 4 -20 7 0 5 -88 41 -110 45 -3 1 -24 7 -47 13 -23 7 -45 12 -50 11 -4 -1
-10 0 -13 1 -9 4 -115 6 -140 2z"/>
</g>
</svg>
